<svg xmlns="http://www.w3.org/2000/svg" viewBox="0 0 7.678 7.68" width="64" height="64"><path d="M2.56 7.68A1.28 1.28 0 0 0 3.84 6.4V5.12H2.56a1.28 1.28 0 0 0 0 2.56z" className="figma-color1"/><path d="M1.28 3.84a1.28 1.28 0 0 1 1.28-1.28h1.28v2.56H2.56a1.28 1.28 0 0 1-1.28-1.28z" className="figma-color2" /><path d="M1.28 1.28A1.28 1.28 0 0 1 2.559 0h1.28v2.56H2.56a1.28 1.28 0 0 1-1.28-1.28z" className="figma-color3"/><path d="M3.84 0h1.28a1.28 1.28 0 0 1 0 2.56H3.84z" className="figma-color4"/><path d="M6.4 3.84a1.28 1.28 0 0 1-2.56 0 1.28 1.28 0 0 1 2.56 0z" className="figma-color5"/></svg>